<mxfile host="app.diagrams.net" agent="Mozilla/5.0 (Macintosh; Intel Mac OS X 10_15_7) AppleWebKit/537.36 (KHTML, like Gecko) Chrome/128.0.0.0 Safari/537.36" version="24.8.0">
  <diagram name="Page-1" id="qU7TNp_gW_BwZq8pQVzv">
    <mxGraphModel dx="1363" dy="874" grid="1" gridSize="10" guides="1" tooltips="1" connect="1" arrows="1" fold="1" page="1" pageScale="1" pageWidth="1169" pageHeight="827" math="0" shadow="0">
      <root>
        <mxCell id="0" />
        <mxCell id="1" parent="0" />
        <mxCell id="PtzTgGSPzgL4J4l-laeS-1" value="AWS Security Services" style="rounded=0;whiteSpace=wrap;html=1;dashed=1;fillColor=none;labelPosition=center;verticalLabelPosition=top;align=center;verticalAlign=bottom;" vertex="1" parent="1">
          <mxGeometry x="120" y="780" width="240" height="520" as="geometry" />
        </mxCell>
        <mxCell id="PtzTgGSPzgL4J4l-laeS-2" value="AWS Secrets Manager" style="sketch=0;outlineConnect=0;fontColor=#232F3E;gradientColor=none;strokeColor=#ffffff;fillColor=#232F3E;dashed=0;verticalLabelPosition=middle;verticalAlign=bottom;align=center;html=1;whiteSpace=wrap;fontSize=10;fontStyle=1;spacing=3;shape=mxgraph.aws4.productIcon;prIcon=mxgraph.aws4.secrets_manager;" vertex="1" parent="1">
          <mxGeometry x="140" y="800" width="70" height="100" as="geometry" />
        </mxCell>
        <mxCell id="PtzTgGSPzgL4J4l-laeS-3" value="Amazon GuardDuty" style="sketch=0;outlineConnect=0;fontColor=#232F3E;gradientColor=none;strokeColor=#ffffff;fillColor=#232F3E;dashed=0;verticalLabelPosition=middle;verticalAlign=bottom;align=center;html=1;whiteSpace=wrap;fontSize=10;fontStyle=1;spacing=3;shape=mxgraph.aws4.productIcon;prIcon=mxgraph.aws4.guardduty;" vertex="1" parent="1">
          <mxGeometry x="135" y="910" width="80" height="110" as="geometry" />
        </mxCell>
        <mxCell id="PtzTgGSPzgL4J4l-laeS-4" value="AWS Key&amp;nbsp;&lt;div&gt;Management Service&lt;/div&gt;" style="sketch=0;points=[[0,0,0],[0.25,0,0],[0.5,0,0],[0.75,0,0],[1,0,0],[0,1,0],[0.25,1,0],[0.5,1,0],[0.75,1,0],[1,1,0],[0,0.25,0],[0,0.5,0],[0,0.75,0],[1,0.25,0],[1,0.5,0],[1,0.75,0]];outlineConnect=0;fontColor=#232F3E;fillColor=#DD344C;strokeColor=#ffffff;dashed=0;verticalLabelPosition=bottom;verticalAlign=top;align=center;html=1;fontSize=12;fontStyle=0;aspect=fixed;shape=mxgraph.aws4.resourceIcon;resIcon=mxgraph.aws4.key_management_service;" vertex="1" parent="1">
          <mxGeometry x="132" y="1040" width="78" height="78" as="geometry" />
        </mxCell>
        <mxCell id="PtzTgGSPzgL4J4l-laeS-5" value="AWS&amp;nbsp;&lt;div&gt;Certificate Manager&lt;/div&gt;" style="sketch=0;points=[[0,0,0],[0.25,0,0],[0.5,0,0],[0.75,0,0],[1,0,0],[0,1,0],[0.25,1,0],[0.5,1,0],[0.75,1,0],[1,1,0],[0,0.25,0],[0,0.5,0],[0,0.75,0],[1,0.25,0],[1,0.5,0],[1,0.75,0]];outlineConnect=0;fontColor=#232F3E;fillColor=#DD344C;strokeColor=#ffffff;dashed=0;verticalLabelPosition=bottom;verticalAlign=top;align=center;html=1;fontSize=12;fontStyle=0;aspect=fixed;shape=mxgraph.aws4.resourceIcon;resIcon=mxgraph.aws4.certificate_manager_3;" vertex="1" parent="1">
          <mxGeometry x="130" y="1170" width="78" height="78" as="geometry" />
        </mxCell>
        <mxCell id="PtzTgGSPzgL4J4l-laeS-6" value="AWS Identity and Access Management" style="sketch=0;outlineConnect=0;fontColor=#232F3E;gradientColor=none;strokeColor=#ffffff;fillColor=#232F3E;dashed=0;verticalLabelPosition=middle;verticalAlign=bottom;align=center;html=1;whiteSpace=wrap;fontSize=10;fontStyle=1;spacing=3;shape=mxgraph.aws4.productIcon;prIcon=mxgraph.aws4.identity_and_access_management;" vertex="1" parent="1">
          <mxGeometry x="260" y="800" width="80" height="120" as="geometry" />
        </mxCell>
        <mxCell id="PtzTgGSPzgL4J4l-laeS-7" value="AWS&amp;nbsp;&lt;div&gt;Security Hub&lt;/div&gt;" style="sketch=0;points=[[0,0,0],[0.25,0,0],[0.5,0,0],[0.75,0,0],[1,0,0],[0,1,0],[0.25,1,0],[0.5,1,0],[0.75,1,0],[1,1,0],[0,0.25,0],[0,0.5,0],[0,0.75,0],[1,0.25,0],[1,0.5,0],[1,0.75,0]];outlineConnect=0;fontColor=#232F3E;fillColor=#DD344C;strokeColor=#ffffff;dashed=0;verticalLabelPosition=bottom;verticalAlign=top;align=center;html=1;fontSize=12;fontStyle=0;aspect=fixed;shape=mxgraph.aws4.resourceIcon;resIcon=mxgraph.aws4.security_hub;" vertex="1" parent="1">
          <mxGeometry x="260" y="942" width="78" height="78" as="geometry" />
        </mxCell>
        <mxCell id="PtzTgGSPzgL4J4l-laeS-8" value="AWS WAF" style="sketch=0;outlineConnect=0;fontColor=#232F3E;gradientColor=none;strokeColor=#ffffff;fillColor=#232F3E;dashed=0;verticalLabelPosition=middle;verticalAlign=bottom;align=center;html=1;whiteSpace=wrap;fontSize=10;fontStyle=1;spacing=3;shape=mxgraph.aws4.productIcon;prIcon=mxgraph.aws4.waf;" vertex="1" parent="1">
          <mxGeometry x="258" y="1080" width="80" height="100" as="geometry" />
        </mxCell>
        <mxCell id="PtzTgGSPzgL4J4l-laeS-9" value="&lt;font style=&quot;font-size: 14px;&quot;&gt;Logging and Monitoring&lt;/font&gt;" style="rounded=0;html=1;fillColor=none;labelPosition=left;verticalLabelPosition=top;align=right;verticalAlign=bottom;spacingLeft=0;spacingTop=20;whiteSpace=wrap;spacingBottom=-30;spacingRight=-160;dashed=1;" vertex="1" parent="1">
          <mxGeometry x="120" y="1341" width="600" height="149" as="geometry" />
        </mxCell>
        <mxCell id="PtzTgGSPzgL4J4l-laeS-10" value="AWS S3&amp;nbsp;&lt;div&gt;(Logs)&lt;/div&gt;" style="sketch=0;points=[[0,0,0],[0.25,0,0],[0.5,0,0],[0.75,0,0],[1,0,0],[0,1,0],[0.25,1,0],[0.5,1,0],[0.75,1,0],[1,1,0],[0,0.25,0],[0,0.5,0],[0,0.75,0],[1,0.25,0],[1,0.5,0],[1,0.75,0]];outlineConnect=0;fontColor=#232F3E;fillColor=#7AA116;strokeColor=#ffffff;dashed=0;verticalLabelPosition=bottom;verticalAlign=top;align=center;html=1;fontSize=12;fontStyle=0;aspect=fixed;shape=mxgraph.aws4.resourceIcon;resIcon=mxgraph.aws4.s3;" vertex="1" parent="1">
          <mxGeometry x="140" y="1380" width="60" height="60" as="geometry" />
        </mxCell>
        <mxCell id="PtzTgGSPzgL4J4l-laeS-11" value="AWS Cloudwatch" style="outlineConnect=0;dashed=0;verticalLabelPosition=bottom;verticalAlign=top;align=center;html=1;shape=mxgraph.aws3.cloudwatch;fillColor=#759C3E;gradientColor=none;aspect=fixed;" vertex="1" parent="1">
          <mxGeometry x="240" y="1380" width="60" height="67.64" as="geometry" />
        </mxCell>
        <mxCell id="PtzTgGSPzgL4J4l-laeS-13" value="Logstash" style="shape=image;verticalLabelPosition=bottom;labelBackgroundColor=default;verticalAlign=top;aspect=fixed;imageAspect=0;image=data:image/png,iVBORw0KGgoAAAANSUhEUgAAAawAAAIACAYAAADe/likAAAABGdBTUEAALGPC/xhBQAAACBjSFJNAAB6JgAAgIQAAPoAAACA6AAAdTAAAOpgAAA6mAAAF3CculE8AAAAB3RJTUUH5QEeFQkDVd2i5QAAAAZiS0dEAAAAAAAA+UO7fwAAGb1JREFUeNrt3Xuw33dd5/HX+3eSpjfhNGm5SCmWiyAWSLAtvaiEXUAZr6PIyoLjgqOCrBe87M7iegG1Ci6LoOIqsgyIoruKtYjItT9pT9PmnCRHCrTYi5Ry6SVt07RN0iS/33v/OGFk9R/GAfkceDxmMp3pX+nre9JnPuf3Pd9vzZdO7Xxx3JXkpnSO/H//tnIoyfWVHEhyMMn1qRzq9B3puinJ0XQfSeVwpe5PzY8kdSg9O1IX7jsSAL4i1RcxWP9a83RuT+XTST6Z9B1J3ZD03nRuTeqeVB+o1J1J35uqO+uCvQdcSgDBGsnRJLcnuXstZrkjyaeS3JT07ZX6eKpvSs3urPP3HXJ5AQRrNPcdi9jtSW5Lcm86N3Zy7ST90dTs+rpw320uN4Bgjej+YyG7L8n+dF9TVSup7EhyWV2wt11+AMEaUX/OPw+ls5TKcqovS+r6nufuyST764K99/uyABCsUX06yVVJpun+SCqfqpp/JtX76/x99gEQrOHMs/Y52IeTXJNktTvXTCa5pi7Ye5d5AARrVHcmuTnJDZ3eU8lllSzVhXccNQ2AYI2os3bzxp3pvqErl0ySd9aFd1xnGgDBGjle8yT3J72a5JJ0Lu7K3klmd9eF+5y+AARr1IT1/lTeneSSJFfXhvmNOa7vqW37bAMgWEM6kOTDqSx193Qyqavq/L23mgVAsEZ2Y5Krk/5gTfodOX5+Y23bNzMLgGCNqJPsT3JLpz9QVW+dXLD3CrMACNbI1m7U6Lyn0m/uyuW1ML87m/qwz7oABGtUh5LekcqfVdflmRy9wdPlAQRrZIeT7Ej6vZ28ezKZXV3n7/MsQwDBGtb9ST6U9PtS/baq+UfrfDdoAAjWuO5L8slOXzyZzF5d5++73SQAgjWyo0lu7/TvV/XbktxcNT/kyfGAYDGyG5J+cyd/e+wzLjdnAILF0D6c7jfVpN6VE45eV9s8sxAQLMZ1T5Idqf7TSi6uC+7wji5AsBjW2ksmO5dXzV+dzK+sC322BQgWY4frUKffUJN+Tc0nt9SFe/0MFyBYDByu7htS9b9S/ZdV9Yk6f6+f4QIEi2EdTPKBTt5Qm2bvnpx9l7sJAcFiaNcnfXFVfq8uuONGcwCCxeinrSuTfn1NZu+s8/cdNAkgWIxqnmR/0n+Z5JVV8+vrgrt8tgWsWxMTfFlf28WkXpCud3RPntNXbD7NLIATFqM7kPT/TuqNdeLRq2ubp8EDTliM6cSkfjjJa/vAwvf2FVtOMgkgWIxqU5JvTOrV83n9t/ny5lNMAqwXviX4lev+JH9Xmf3XVH2kLrjziEkAwWJkNyd9UVJvrxOP3l7bPJcQGJNvCfLwpH496V/qg5PH9tKirwlAsBjWYlIvzLx+M1k43xyAYDGy41P1rE69fra05bnmAEbjMyz+uU5ye5LfqYX5b6cnd9f5e32NAE5YjPeXmCQPSvILPZu8Pt1P6is2+zoBBIthbUzy3O68Zt71780BfMn/Nu1bgnwerk7nV+qkoxfXtn1+XgtwwmJYZ6VyUR/c8AO9Z3GjOQAnLEbWSe5K92ur5r+bmtxZF9zhawdwwmK8v9wk2Zyql3UmF6VzhkkAwWJkm5L6kU796uzyU88yByBYjO65VfmN2dKWp5gCECxGtpDkGZV6xWxpy9nmAASLkR2X5N9V6lXzHVsu7OVTNpgEECxGtSHJ0zKvP+sjk2/pPYsLJgEEi5E9LF2/2wcXntF7Fp20AMFiaGek61V9cMO3iRYgWIyskjw+nZf3wQ3P8u1BQLAY2UKSJ6Tzqj648PRecSMGIFiM/XX1uHS9sQ9PvtVJCxAsRvewdL2+Dy483WdagGAxutPT9evzgwvnmQIQLEZWSc6qrl+cLW051xzAv/p/Jl4vwr+RI0ku6/TPJPn7hQu9mgRwwmJMG7P2GKfXVfI4cwCCxei+Kalf6iu2PMQUgGAxuuf0PD/TS4unmAIQLEZWqfqh7oUf6z2LG80BCBYjOyVVL+6DG36gd50iWoBgMbSHpfPf+9DkO2dLW0QLECyGdmZSr6jkG/vyzdYABIuhPT6pX03NH2QKQLAY3QXdC6/oPYubTAEIFmOrem4f2PDS2dIWWwCCxdAekOTFSZ7fS1uOMwcgWIzsjEr9eNJP6SXv0QIEi7E9uVM/3ZPJw3vPojUAwWJYG5J6Vub10j6w4JQFCBZD25TUD1X3d5sCECxGd1KnLuqlzd9gCkCwGFvVmZ3Jf5ktbXmoMUCwYGQbkzyjUj/YO049yRwgWDCyU5L8UM/7m3rPoq9ZECwY2qOSvLQPLJxuChAsGFkl9YwkL+0rNh9vDhAsGDtanR/trmeaAgQLBk9WnZDUy/qKLQ8zBggWjO6J3Xlx71n0gFwQLBjaCUk9tw8sPMsUIFgwujOTekHv2HKmB+SCYMHIKskzuvMf54cmJ5sDBAtGdmK6frDmtbWXFsscIFgwssck9VOdDZtMAYIFo/u2Sj/DDCBYMLrju/PK+c7Np5kCBAvGVvWIPjL54d6xuNEYIFgwshMreX7PF841BQgWjO6RSX1/7zjVD2aBYMHQNiX5rp73haYAwYLRnZ7khb20+QxPwADBgpFVUt/WVU+dH1pYMAcIFoxsU7p+pKofaAoQLBjdU3o+8aJHECwY3saa90/0nsUTTAGCBWOresL8wIbn9Y5FX+cgWDC0kyv5sZ5PHm0KECwY3aOSenbvWDzOFCBYMLIHJPUt89nCY00BggWjO7sqT3PKAsGC0Z2Y1HfP5wuP8PQLECwY3QWVnJtD5ekXIFgwtE1Jnt/zyUmmAMGCwdU3V+J9WSBYMLwTO/UiM4BgwXrwtL7i1LPNAIIFo3tAz/NjvWNxoylAsGBkG1I5bz6fPMEUIFgwuodX17f3nsUNpgDBgpGdlKpzcnDhdFOAYMHIKsnWnte23rFY5gDBgpGdnupv7p48wBQgWDD6QeuZmdeZdgDBgtF9bSrn99IWt7iDYMHQNqTr2d11silAsGBslW/KZP4YQ4Bgweg2dtdLzACCBevgkJWn9tKiuwVBsGD4ZJ02z2S7HUCwYHSbKvUdZgDBgtEtJPXkXlr0qCYQLBjew+dZeKYZQLBgdIuVnN1Li8ebAgQLRrYxqbPmmTzaFCBYMLrHVsqLHUGwYHinJnlSLy16VBMIFgz/5+FJ6cmDTQGCBYOrs7pKsECwYHinJ3VWX+GVIyBYMLy+cN450Q4gWDC6p1YECwQLhlePqPRZdgDBguF16llWAMGC9XDKeoYNQLBgPXhkLy1+tRlAsGB0C+nJU8wAggWj29BV280AggXr4c/G43vH4iZTgGDByCqp0zOfnGkKECwY3VfNU48zAwgWjO6Blfp6M4BgwehOTvKEXt58kilAsGB0D+4jk9PNAIIFo3touh9hBhAsGN0pSZ1mBhAsGN2WJN5ADIIFw1tI8rjeceqppgDBgtGd1vM+2QwgWDC605N6oBlAsGB0j0z3FjOAYMHoFjPJ5t6z6M8LCBaM/uekvi4HN3hyOwgWDK77zJ63YIFgwejqIalssAMIFozuoUltNAN86fgbI3w+us9IIljghAWDq9qcygmGAMGC8ZuVPNYKIFiwHngvFggWjK+TM6wAggXrwaNNAIIF60A9yAYgWLAeeGI7CBasC19rAhAsABAs+AKpXlp0pyAIFowfrEw2nGYGECwYX8crRkCwYPwTVrcfHgbBgvUQLLe2g2ABgGDBF453yIFgwfh/Xirth4dBsGA9KC9xBMECAMECQLAAQLAAQLAAECwAECwABAsABAsABAsAwQIAwQIAwQJAsABAsABAsAAQLAAQLAAECwAECwAECwDBAgDBAgDBAkCwAECwAECwABAsABAsABAsAAQLAAQLAMECAMECAMECQLAAQLAAQLAAECwAECwAECwABAsABAsAwQIAwQIAwQJAsABAsABAsAAQLAAQLAAQLAAECwAECwDBMgEAggUAggWAYAGAYAGAYAEgWAAgWAAgWAAIFgAIFgAIFgCCBQCCBYBgAYBgAYBgASBYACBYACBYAAgWAAgWAAgWAIIFAIIFgGABgGABgGABIFgAIFgAIFgACBYACBYACBYAggUAggUAggWAYAGAYAEgWAAgWAAgWAAIFgAIFgAIFgCCBQCCBQCCBYBgAYBgASBYACBYACBYAAgWAAgWAAgWAIIFAIIFAIIFgGABgGABgGABIFgAIFgACBYACBYACBYAggUAggUAggWAYAGAYAGAYAEgWAAgWAAIFgAIFgAIFgCCBQCCBQCCBcCXlw2fuG3TnWaAz0un+tC6/J1f+o4NSU5LcpLLyLoN1s+96Yy7zACfX7COW5gfSj69Hn/vi0l+NMl5LiPrNlj/eOvxjzIDfF7m6Syu09/78Um2JfkWl5H1ymdYAAgWAAgWAF9xwXLTBQDrIFidT5gBgPVwwjpsBgDWQ7AAQLAA4AsVrNvMAMA6CFbfZAYA1sMJCwDWRbDmZgBg+GB18nEzADB8sKqz1wwAjH/CqrrbDAAMH6xU3CUIwPjBquRQkpkpABj7hNU5kM7HTAHA2MFKOpUjpgBg6GB19eGkbzEFAEMHqzqzdPabAoChg5V5DiblMywABg9WcjRxwgJg8GCtrEwPpXJD3NoOwOAnrHTn3iR3mgOAoYOV6vuS3GUOAIYOVnX2JXFrOwBjB2ve2Z/ObeYAYOhgTTr7UvmMOQAYOlgrK9N7Ork5yWGTADBssJKkOncmudckAAwdrKT/McmtJgFg6GDN12662GcSAIYO1qRzS/wsFgCjB2tlZbo3ySey9mxBABgzWEnS6ZuTHDILAIMHKx+JOwUBGD1Yk1muFiwAhg/Wysr0xri1HYDRg5Uk3VlO0qYBYOxgpVcEC4D1cML6kGABMHyw9ixPr+72ORYAgwcrSVL9QdMAMHywOvk70wAw/gmra2eS+80DwNDBqurbOrnWPAAMHaxO7kmyZB4Ahg7WfJ4D6exJMjMRAMMGa3V5eiTJDUluNxEAwwYrSTr9qU6uNhEAYwdrlpsr2WMiAEYP1sHufCS+LQjAyMFaXZ0m6auT3GgmAIYNVpLMOtd1cl3cLQjAyMFaXZ7em+4PJbnPVAAMG6xjrkxyl6kAGD1Yl3fn2nhHFgAjB2vXzmkn/c74HAuAwU9YSfLOJAfNBcDQwdq1c3pjd3abC4DRT1hJ+hJzAbAOglV/2Z07TQbA6Cesu5O+1GQADB6s3Juq9yQ5ZDYAhg3Wrp3Tw0nvTnK92QAY+YSVXovV1GwADB2seWVfd65McpvpABg2WKtXTtPdO5J8yHQADBusJJkfySfS2RVPvgBg5GCtrk6Pdve7ktxqPgCGDVaSVGdnd1aTzE0IwLDBWlmZHuzuNyS534QADBusJJkfyaXduc6EAAwdrNXV6cFU/6EJARg6WGvqXUk+ZUYAxg5W9y3pXGxGAAY/YeW+rvx53OIOwMjB2rVz2j3vD3fnL5LMzAnAqCes7F6e7k3lfUk+Y04Ahg1WkmTeO7uzHD9IDMDIwZodyWcqfUmS200KwLDBWl2dzuezvD1r78tqswIwZLCSZPeu6f7uflM8rgmAkYOVJLNJ/m+Sa80KwNDBWr1yur/Tv21WAIYOVpJ08jdJLjMtAGMH62hu73lek+Qe8wIwbLD27JrOqnpnOn8ddwwCMGqwkuTo4dzSyTuS3GJiAIYN1urqdJbuy7pzRTz9AoBRg5UksyP5dHf/cbwvC4CRg7W6Op0neWcnS/EkdwBGDVaS7F6eHq5Z/2I8yR2AkYOVJCsr0+vSeaupARg6WEkyT/9hPLIJgNGDlc4nuvNbSQ6bHIBxT1hHcqTTf3vssU1+mBiAMYO1ujrN7p3Tm9L5gyQfNzsAQwbrs2reO5K8Pcl9pgdg2GCtrEz3dfebuvPR+NYgAKMGK0lmh3Ntd78xyQHzAzBssFZXp7Mkb0nn78wPwLDBSpLdy9ODs+qf7HYDBgADBytJKrkplVcn2e8yADBssHZfNT2Szl8keafLAMCwwUqS2aRvTfotST7mUgAwbLBWr5zO07m0O3+c5B6XA4Ahg5UkKzun988m/bru/FWSoy4JAEMG69hJ6+6ufm2SG1wSAIYNVpLsvmq64onuAAwfrCSZV7+tvewRgNGDNensT/Vrklzu0gAwbLB27Zz27P5c0/O8qpPr4wG5AIwYrGTtWYOz9KXdeUOSO10iAIYMVpKsLk/vTfdbu/PXcRMGAKMGK0l2L08/3d3/oztXu0wATEb+zc2P5KOd/Hy3NxQDCNbAVlen80q/L+mfiqe6AwjWyHbtnM4q+Yus3YThLcUAgjWulZ3Tu5L8QZL3JjnisgEI1rCOHu7r553f7M7fx89nAQjWqFZXp/N591VJvyLJXpcOQLDGjdby9GiSd8zTL0lyr8sHIFjD2rVzmuq8vbtfFzdhAAjW4NGaJfVb3Xlb4me0AARrYLPDvbc7v9adS5LMXEoAwRrS6uq050f64925qDuXJZm7nACCNW600h+ueb8oyR6XE0Cwxo3W8jQrK9OPzef940mucUkBBGt0O7r755Jc67ICCNawdi9PU8n70/3KJDe5tACCNayVndNDnfyfXovWp11eAMEa1q6d0wNJfr+7X5bkEy4xwJeHDV+O/1G7dk7nSd78Dedun1fVK5M81KUGcMIaOVx/1N2vcNICEKz14M3dfVHciAEgWIOfsg4m+aPu/o0kn3LJAQRr5GgdSPKG7v55Jy2A9WnDV8p/6NoT3vPmbzh3++zYjRhf7fIDOGGNHK63dvfLk9zg8gMI1tgqb+n0y5Ks+BIAEKxxT1lXTQ/1PBd39y8k+ZAvAwDBGtbu5enh7rwn835ed94fL4EEEKyBozVfWZ5+eNb9n7rzviQHfUkACNawVpenn5xX/0h3/jjJfRYBEKxh9f25OZ2Xd+d1SW6zCIBgjXnKWp32ruVLP5n0qzr9i0lusQqAYA1r187pvk7e2N3P684/JJlbBUCwhrT7qunRXTunH5in/0MnH4ibMQAEa2R9OH+feV6c5C1J7rAIgGAN6djnWtd3+uXd+c3u3JykLQMgWEPaddX0M939e528pDvXWgRAsIa1e3m6f979N939PZ1+T5JDVgEQrCGtLk9nu5en13by/E7+Z5Kb45FOAII17Gnrqunts3n/+rzzs0mWRAtAsEY+bd07P9xv7+6f7s5bk9xvFQDBGjNaq9Oju3ZOd3X3z3fnZUk+aRUAwRrWfCGfSuV30v28JFOnLYAvvA0m+AKctK6cJsnhJB/ces725yxUvagqL0hypnUAnLDGjNfy9PZdOy/9lU7/bJJLk9xrFQAnrGHVLBen+ppUPTuVFyb5GqsAOGENZ2VlOl9Znl6T9G9150XH3mh81DIAgjVmuHZO75l1vy/J96X7l7tza/zcFoBgjWh1eTrbtfPSfUcnuairv7XTb8vaCyK9awtAsAYM15XT3n3VdLVmeUl3fibJe+MWeIDPi5suvgRWVqb7k/zJ2edu39VV31vJC5I82jIATlhjhmvn9GPz6td0+oXpvCHJPqsACNaQ9lw5PVizXN6dn+7uZ3fyrqz97JYXRQJ8Dt8SHOGktTLtY5F6/9at26/YcFy+q1M/UZWvS7JoIQAnrOGsrk4PHj2cPz32oshfS3JZPC0DwAlr0GglyS1bz9v+2oV5/22qnl7Jc5Kcbx1AsBgvXFdOjyT58Nbztv/DQue96fqOqjw3yROtAwgWI4brcJKPbDtn+w1V+dNKvrNSL8na0+A3WggQLIayZ3l6KMnHk7xu63nb/2hhnudV1Y8meXiSr4rPJAHBYsBT111JfmfbU7b/9aTzfUk9tSpPTvJg4QK+HPkf23o/dV01/fjscF5d3f+5k5d2501J7rIM4ITFeKet1ek8a98q/PiTz9k+TdWfV+fpqXxXPPIJcMJiRLuXp7fWrN/d3b88T397un+yk5Ukh+Pp8IATFiP5nCdnfOzYr9c9+Zzt3zOp+v5UtiV5UNZu0ihrAU5YjHbyevvRST+/u7+vk4uSXJLkHy0DOGExnGM/z7WaZPXss7c/uCd5SqW+uSvbKtmW5BQrAYLFUFZWprdu3br9klro908W8vBOPSqVp6Xz3VV5lIUAwWKcE9faMwvvS3Lt1q3bPzbZlA9W6rfn6W2V+t5Knplkc9a+dezbx4BgMUS8Osk9x37dlOTiredtf+BklifXJN9RqW/N2qtOFpMcHzdsAILFMBG7cnp3kku3bt0+rYV+5WQh5yV1biqPr7XnGJ4Rn3sBgsVgp69bk/xVkr/aes72UzZUHp/U41P5+iSPTXJWkq+Obx0CgsUwAVue3pVkaevW7VdMNubkmuQhST0snYdV5dxOnlzJE5I80FqAYDHKyeuzn3tdt23b9oXJxrwjlZN7Xqek+kmVnJ3U0zp5TFVOyD999uUzMECw+NLYs2c6S7L/2K9PJ/lIkj9Jkq3nbH9AdZ44meSJ1fXEVL4xazdvHJ/kxGO/NlkRECy+tKex5en+JJcf+5Wt52zfWMkjFypndOXRST2m1t7r9dnHRi0ei9iDnMYAweJLGbAj+adnHb43Sc4+e/vGTr4mk2xO5SHV9YBUzjwWr1OP/TohySOOncxO8zUMggX/5lZWpkeSXPe5/27r1u21sJATMskDqnJykuOSOjXJcZ18VSqL1XlokuNS2Zzuh6RyXFIPT+f4JMnaZ2cPORY7QLDgi3ASW7ux48CxX//C1vO2L2yY5bgkk55kQ62FbFKdTfnsLfadyVrE/uUt9905sbof+/n+WZj/s6CuH5M7k35t0m/3VcV69f8AON5/MGSjoMYAAAAldEVYdGRhdGU6Y3JlYXRlADIwMjEtMDEtMzBUMjE6MDk6MDMrMDA6MDBuyfWRAAAAJXRFWHRkYXRlOm1vZGlmeQAyMDIxLTAxLTMwVDIxOjA5OjAzKzAwOjAwH5RNLQAAAABJRU5ErkJggg==;" vertex="1" parent="1">
          <mxGeometry x="340" y="1383.91" width="50.01" height="59.82" as="geometry" />
        </mxCell>
        <mxCell id="PtzTgGSPzgL4J4l-laeS-14" value="Filebeat" style="shape=image;verticalLabelPosition=bottom;labelBackgroundColor=default;verticalAlign=top;aspect=fixed;imageAspect=0;image=data:image/png,iVBORw0KGgoAAAANSUhEUgAAAMgAAADICAMAAACahl6sAAAAilBMVEVHcExJSUlLS0teXl5VVVWAgIBHR0c9Pj5+fn5BQUFPT09GRkZxcXFra2teXl5kZGRQUFBUVFRFRUU7OztAvrAKpd7///89m5D6/Pw8ZmI+q54vsuIlbIUqXnE+dnBVqJ42UVU5REc/tqmTmJhCoZYSksENntPW7O0+i4Iagqmx2tmLycxzt6+Ql5dqbh4yAAAAE3RSTlMA18pQhQnv/hb1oOAlMGg7spex0V9n7AAAB1FJREFUeNrdnWtb4jwQhts0bZqeS4oFxIosirr7/v+/91JlWRFQMjNpYp9Pftnr4t455tCJ55lQnAcFTybMjyIphFJCyCjy2SThRZDH3k9QmAW88iOpeolen/5SMkorXmShwxBxwCeRulLRhAcu2iYuOZNCaUlIxsvYLVMkqSbEASZNXDFMHFQRkOKvl1UOsOR1qgiU1rlVYxRMKCIJVtgyS8xTRaqU20DJE6nIJZN8DBjDo2S1IYx3lGyw2DCI8YYySKyERaqMKy2Mt2IlXcL9OhmXZs1h2qs++pdBowS+GlBpYMoctVSDStahmehQg8svDSQrqSxIUqevuBLKikRFWlNyX1mTT9izBJGyqIgse3GhrEoQlZTaMseOJCEJc+WA8CEfM+WEGJIk85UjYtk4OHZpOBsHB4bELQ44SewYBzTiXclXaJJKOagKsIpSTkp7rcWFmyCCa/a7jnLsllpavXAeKWcV5T858R6Vk6tTV1gpp1VdG/CFcBtEFFfu+2jsl6zuNLRaPdD8F8mrdolCnQBZTrX09PiyvCOA8a9xLq1KqAnyTvNy94Cui1dUEGkapGdZrkxXk1Av8wJBerPgUNLvnIurYUB6qzwYdK5SDgYynT6ujGWuUHcNggKZTpeIDMZCylKIBJm+PBgpi7F2r4gFmT7CSdKYKtIpQDAkF5cmmbQAgiCRl3ZVEmUDBEFyYW87l3ZApi/EJgEYhAZkuiQ1CcQgRCBP0MoocyKDEIFMH6GF8UyjEkuLIGDnkjFBDaEEeXqgqiVxahUEbJKT8l4ouyBQk5x0XMwyCNgk7FPuFbZBoIlL5PAdByMg0xVFBo5T+yAvFOEeKPsg4KIYUJxOEYKA+5QEszI0ADK9g54zxATHOpQg0CARAa5fdAbkn2/FqRMgTwKbt0rhBgi0cRQlqvElB5mC1+4c12eRg4B3UBlmSeUQiNgvrzBn6m5YZJ+AESHiCMg+SCbqpwe7mrwdJUSOgDzBQaL+iCFTjoA8ImI1w7TwzrQo+1aeuwKyRPwOjr0p50Ib36u/Wec7AvKEORr1MYsq6qUu5nfsFle5dAQEEyL9tjwqabmwHfS3SSkcAXnEXRoqcNlXLG/BIsxZb/k3Qf37XzOwttvX37cUp9T7dfsEB3KD02y7h1niOHZtI7MKcjO7mb3e4g2yWyT6dkF6lJvtLTJClPA93HAWApBer8/IG3Uq8iJlH2R737YdyrlE5En7ILM/7U44o0hPWAeZ/W7fNUdYxAWQ17YlIPGUbZDXzQGk7X4wyEcOBImw7FqzYw64d1kGOcT5QZs5FMRm+t3++czRrtcrYNayV9lnr/cnHIum2YB+kMXKfsYc7abZCRLwu8puqWnc/t6ccrTrHgTkXL6VNn62/XMO452jaVqARdjwC6vdWuq+PatFsxfAJBPkUvc/7dXteVsccTQb/R9S4zYfVHevo4sMxxyQKOHI7aB5S6UPHE3zDNgOCtwAOeJo1tq1pERumVKBrJtj6TYqMkduYtOAbD5zaPtWf0PItw6yaE60eNCth8iDnrkJcwBKSYU9epubMAcgSDj2MHRuBkM7SALs8TQKZHMRQ7vfyrAXBuAgi8W6+UILvaQVIq9wiPkCpPWXEG8lUbNlxF6q6RpD0qvtHH3NyRyITiHZX3PCXDxzA+Tvdz3sh7uWYPjLmeZA9EMEdV3WGIhO+j1cl0VcYDYGolMQ/314kbgHotOiJASX/I2BdNrJF/fZhTEQjTb+w2cX8DWJKRCdhVVC8WlS50CsBxQfi3X2Q+T429DaMRANz6pJPqjsrHvWpw8qof2WIRCNFTuj+ejYDIjOoVVB8xl4Z9sgp1NeuDsgCw2DcKJRCSZA1hoGOTMqAdY5mgDR6RdrqnEind3u5Ow4EZBJOquOdWHmDsQknc3m5OIUpMQBkGeBjBDgWCpqkFYQGARSS4hBWq3zncszjPXLe2eR44vRbfrD9Dpr8fHNjFlmD2SteUj15XhD7YGTdCCt5qnhd6NyuR2QRafr1Jx2KCsNyFr/Pvn3E3/1xuR2JNbQvxZ/zdD1elCQ9fMcsl1wxeBiPedCgKzXi7ZbwTY92FVzyrWGe8+hwkz6llc+ATeWcevjGYA/micJxvNIhMvPdgjNJ+zG8pAKfH/esADPiI7ksaERPf/kIAn0Cb6xPJE2nkfrxvOM4I7EmThhyOfnx/LU5ngeP+2fr7P/HG3tUSgcywPB43myeTyPaPer33E8az6eh+b7XSILFcUvPQMK64GNIuvQM6MgHdQcgWdMAxpF8tAzqZINkr4EKz3DCosB/CstQs+8Yi5Ne1XsDaPMZKjIJPOGU5ZIUxi5N6xyE1YZHuM9VojDPh0sNk5QCrpkLFhhC2PvYSRmSevcs604SHDTbkSUBLHnhMIgSaFP7KTOUOxZSs6kJoyQjJdOURycjE+uXt1HEx64CHGwTBbwyo++qDEySiteZKH3ExTnQcGTCfOjSIqdwwkho8hnk4QXQW7GDv8Dd+50T5xqYQEAAAAASUVORK5CYII=;" vertex="1" parent="1">
          <mxGeometry x="430" y="1383.91" width="60" height="60" as="geometry" />
        </mxCell>
        <mxCell id="PtzTgGSPzgL4J4l-laeS-15" value="Signoz" style="shape=image;verticalLabelPosition=bottom;labelBackgroundColor=default;verticalAlign=top;aspect=fixed;imageAspect=0;image=data:image/png,iVBORw0KGgoAAAANSUhEUgAAAQAAAAEACAMAAABrrFhUAAAABGdBTUEAALGPC/xhBQAAAAFzUkdCAK7OHOkAAABCUExURfRYM/nk5/V3W/RYM/nt8vWKdPnX1kxpcfVlRfRYM/ecjPi9tfxbOPitoPRXM/nLx/RYM/VYM/VYNPdZNPRXM/jy+W+4opkAAAAVdFJOU+X96t/+7vsA6Mrx9hLzrviQa0os1qHK/cQAAA/eSURBVHja7F1pm7MqDEVEi3Vf5v//1QvaVlYNi32rXr7N05kpOWQ5CRDQ4+YD/Q/A/wB8dVTjOAx933UNG8Uxg/3nru+H8YcB6G4IQPVa+HmK0zLSgwb71zMOHQCF4wGoqvGt80zyFH1vpFMxY1D9OwDeCt8U3xRcGlOzDQE6cOX50nf/TvQVg24DAnSczfdNwc0c/fuRMjWovgkAW3pm8t81+B0lKDqLP0RHSN93zQ8J/9KCphuq4wFg0rPFn9AvjsmIAIosf1eg3x2FwROgmNL3P2X3BjModCVAEb3+L4S8XVagIhAJgPEU4s++UEEAxVL+CZ1jqAigSOKn6CwjLSQEUBzGdx75VR1Ad3B9KgJiLEChlPd04s+UaIwDwG/THhgjCgDgXL5PcYT9GApAxTj/ScWXHCG6fuTfdgPId/kLdO5R9AEAVH2RorOPlwr4AHDO2GdRAeSx/KdX/1diOFdKkbv3u8Lyr2QAOcs/oYuMtBndARiay8jPEOBcALlyP3ShwQMBcpM/vZL8qBmcAGDuD11rTMwNwgGougldbTAbQGD33xXp5QBgNoDA5H+6nvycDSKw/OiCI+2AAFxUfmYDFQLZf3NR+ZkTQLe1/wWAHt1aflR06L72DwSgurL8aGrQbun/yvKjtEB7/O+69j8DkKI7r/88dqq/6NYADA26MwDV0Ex3BuDCBBgGwNgjdGcAqn66NwBXK4C6AnAPB2gHoOoKdGcAquE28iOL/OmtARi7+8iP7poCbAFwixRgA4Cqm24NwL0MwADA2KS3BmDs7yU/0osA9wZg7BC6NQA384AaALfigCYA7qcAMgBVk94agDtlwUYAvl0HpvP4HQCq4QvyU4yzLHuyUa+D/5hlGP8LOL7HASiTHWfPuizbPE8I+VsHIUneliUDgqGAv4uCGAKmQ8XPniWT+297kKStn9k3IfgGB+Cyt3kir7oNAZIkTB3qJ6bfBuAYDkBxVnPpAbJLisBMov6KJgh1kPQI6dnaJ39egyTMKWSHK8JxhTDm9JjVk7+QQfLD1eCwrRCa1YHSf7wi/QYAY9ytAAxx+TAEGARlRo8GICoJiqD78kgOjArxYyD3+6bFZ/ENGAaNf1we5A/fLnCKZ/tlYhCLB7YWoBZJzsIGMTGG5BhDeNfCIykAfbaGBWQqnGHjJyYVYL+cmUyIOYMDIHgfCI61+trESc4YTTbzYKjF5yVLjZ617kXnqHgIAFFYIGO8CukhhBE6Tu2zuiVOTo/5PCOJSsrY3jBaHkSZ9hN1KduaTZfJ37rGhGReas4lVDWI7QqiJcJY831kmSrFtQ8Zzp82n5o8aWwA+mAajJ/KUpH2xePZ8id+LLjE76iqOBZmBzQuAKH7wVxVVf76Ctv06ZsMcQ16oau6EBYocEwAQovBWFHTZHXW9BlACcnH3LEaREi0cBChGIxl4sdJ20oLkqA8YA383BcQ2cRoNACCgiCbGVGXjcaRnzuCdaGZm5HNrI4SEEOvRSg2Pkfw9bM8OBcUyB/jGZI9xSGGYZkwy/vEOclMbcv+GUViuUFblnv8mKz2xP+jxDTZZzgGAEOI91eWn4of2ujPUvGbdwLwbtmElFjyNzLg4byQuwDvP85aOTxTCRzb2hLRTPbthLSSjFiCVYbHDwB/GigvsWKRuCSWUmcmb33gepcTSsBiiXMkoYzAvxoqUTyiUnRq5L+M3mlKSzOHUPAiBUTKDUIB8AuCWMx9mPdT5Hq2xgKnwWZ3Afj7U2SUs+7A7Mg3E8RiiCe5ykpMBsC0BBsD6X4wVAvDVPSFqoY4AuDnAqhkiNoayB9/bBnve1LzaDOdfvzFQcAPAHEFTJSMGmJbbuSuxhKioR6IdQ8Uhxd7VcPEDJ+b/9bnQshWi8f8mEBdgtiyjp6UHAQg4BMERPsnpoXNTPJTZdOwXnaMoZSYGpYhN1JmRwDciyFiikMSwxcb3Joiv3uRxPg9kiJ6IuBRDxXt3/i1ultLRDcOLZBvMGKTKrZ+fMC5GiSmOGbF05NgcfY089s2y7M9Y/RjRJWjBYgpjsXwcLkRxXxLhH/EHEQEdUy88oKxcZS/tLJ/qwUIc6eQqA+igwbG4YWAIwDi/BOL21FjIEnwJkN2q5NvumSPzMgtCgrFf6vbpdr+yOoB3XdINviwwQ94bBk4RUEh7lipB8W5GsLx56MypEZoU3CxSOJOiFyiIM0+32SnXlqBI6ltBDHJ2QBzoT9rnBP8gDshcgFAIHh22kHVVV7nLRNElkM8n4wQttComNcAzUxaRzfgcDZKCG/ErmmaC/gUyqTSz1wXWwYGbp4k5UZyYuZcgAE/IC4o8Fa8wYpKrxaQ5eru72dnCeYbWwpgJ66cGA7Aattb8tOMWKIXrYmtkgfcP88xiJ+5MUIwALQkENZNn8TCX0QL0gw1y0EA0C2GvhcvzQO6KULXKVoYyTsqKwB81lqIDrqWaopjTge2JFst1CktAgPwce7bZEMrcn8AEF2IIbkHOMJ8+5s/KprUDgBAu8V9JrizFaFlQp9Jr2VSkwpRwDGSHZ73oemkjH+Y7KOie05WB+D9SbtJ6SjAC+xEuNX9tAcCsBGMzalg9uEH25wWAwDYWdmPluY4PgBvdPfsCysAEAMAxoWkbTgAbyvL4x+oxFAArBqAvwrAgRqwOwlzFBBzJCMAuA31AceawCeRcXWC7euwoJAjHe8E4wOwUnzXMDjzRvkgUfsEJJHuAAhhML78a5JHtutOuNZPOLd8C0QqEh9BhFaM8yOIkGDDm/PQqPCc+ZM9Tgs6T7ZpfdSHCqcTmAoLTNMtGbLsdVL7VqdfMrT6EIeKQFrAARCSGbLlZDLQrQh5QxlYLN9Mh3OfdNgJALqdzaze0ukc8KtYDkKt3YBd2B9xYEFT41AQkepOdjeAgfWt9lUTohh6wXCzJEa8KuMcAHhNUCwKW057AOPZ+2ZsPR8QgO6V2Z27sFHutjtUNC5FUYnN5eCy+CYIicM+sdX3Yqks7hLciw653ZgVVtdaF8LBB4SdN0aSTY61BUCP3I4HCIe/4FtjkQapUfStMQ6A4+Zoubc5DqrtRNwcFU7RE+djo02PXI8IiQVs6PZ4JAvI9lyO+/Z4MzgDIDKOP+gBiSjDfEAiSH7UjM4nRGQvb6481Ec4gSQzTiYBRIlNAB4dCkDAeEjuEBsw5qDSwXGfI8NdxQBwvi4inkoxMiJ8gAqYYo50UNCnDjjxx9Y8WmdI+/zGg5J5bAQM2QeV5fc5Kjo/t+dza3QPARw9EuoxUD5knD8R8gTA676EZAUG74sjq4BeQ5I3lD2PCs8vTvq1DpDcTwI7Lh8wTMflw+VHHQfA88qQhAApVVdouTHk6wGUGg+VLo/5H5SeH1317Z4h3wrUr8zkMQ0Aq+YvXhrylj9dnt31bZ5AsXKJkTrXBqFJs/qv271T1MAo2M8PL3tfnaZYXognPYYQKwYg350MuUFcLC9PBzQRk1RR6XBCs0hpsRxksHSL3HRdBW4Br6e3Q15Uko++y82OIiEg3Qvk3VjkwmLINnC/PL5eDQH/Q7kgLStkDEco1biUq/ok8Po484HBAKglQKaTNGZphAj5phz8PNMfcQwLAIGN5JR7byQXphVMiUWKn8mHavXLqq4uoGAW8EDh70qqC8NbYWGjx3a3/09k0RrUJcEtNKbuDUDwoxpqpxihDyR9BnjCD8Xmrai0PiWhp2AK7gIWAMbgRlpZqV2SwOHVkRJbTIkkEdroFOMbgBg91bFaAkjevoBmfmnB+0YuU361KW2Ublppw+V/vT4foZ+o3kL03QZS7X0CNv/lj2v1lh33MSh8FN1jBSBKR1nmptTbUrwvHu+m5nxTcoklc0M55S/nFgwRZouaXgAgTldxavD5iz90vCxJEt4cheqIzi0YIh0BbEYBgFiPS1FDGYDw/ogYu9yX4uLPa0/0DeJY57+mRQEe736CsboqG1aNQ5CXdc2MGWb87HeXBvQ6K4rXZbmRAYjXWd/SUpfpLu+pSgDWz37RdGIgcjvNbpAAqGK+L8XjlklSQgCu0Pw7ix3FmyJK+1EC4BH3dRGWIUWti/OggKKO4qUAD3TM4wIUZ2UST/xn7Fcn0lcMWAGI/s4yj+FthO7iC5dAkcc05wESAGP8d1aXhyUCMJibrh3RVHzJhCUADnppmHGjNgc9rWE6QBXZ8YmZcKUB8BgPemnUs9U8j3qHvS7RDAYAqqPeWOHP6/A70mCHQPgbK9mBr+2kqwI80HceWqNz46CF4G1IzttMLp0WD31U4s0CFQCGw5/ao7xles0p4dw34DPyuZFAOz+1dPyrKkwBRiMAX3tuls6PbTF9eA3+1laWfe+BqaKvjADE6rEPMwltfO27+akAMwCMDN3iucF+tADw9ef2/slIC1EBZABu8ej0JLpABYBbvDpdSPIrANxABaQQoAFw/Wd3U9kANAAurwKqAqgAfIEO/pYCaAA8rv3y7jQ89gAY+/ROCqADUF04FKZCHcAKAPeDF0Ug1TygEYBo+2Q/yAF1+U0AxNsn+7HRDA8YAGN3yUhgMgAzANckA2lnUgAzAIwMXA4BlgVXcACq/nJ+cDIagBWAy7mBSadAWwDwU0OXMoLUGAG2AKj6SyHQWAzADgDLCS5kBKlVfjsA3yySHz5sDmATgGq4CiWeuqHyAIAhcA03YMoBQQDw7dILIMBywC0ZNwG4RF5ozAGBALBQcHoEpn58+APAE8P05Ou/Lf8eANV4biuYmrEKAuDknNjOgOEAVMOJ60N2BgwH4MwIAOQHAHDavCiFyA8B4KQIwOQHAXDOOnHTg0SDAVCdLzWErT8UgDk1TE+l/wNMfigAHIHzcMJ0AssPBuBU2yVFB5bfAYDzZEa7/N8TAF4mPIEVsPx/rI4BgCHw+ycpp6YfXWRyAoBXSqefl796HAjAz++bdoOjQK4AVOMPb5w6mr8XAHNmUFzD/D0B+FVOlLpE/yAAlmjwYxCkXsvvCwA/Szf9mvr7LL83AAyB36IEjbv3CwOAmcHQ/UqZhFv/f82YuQ7EIAxECxcrJBRx/f+37hiiJNutYGxCmTSe52MMdVbHNIDXTAJ0f6rzKhYA6Fa03w40/SsalgC8wBEF1R/3AdDFcOczQZsffiQAWgTYDGVX85e4Gv8ygGGJ/gg48ikAxv3A/9mrUkLnAPBejND7pcY3AeizIPkwQO3T5BMBDEc4QrO2fcinqecC6KuRbodmA1F08uVIjZgMYJSBEQE5dOvh6qcD6AgwDdi+KNzOtwRwMeBBaMFIvRWAyxVCaIsXRmlQD9OLVnGaATi3g0VrxF0v2Yk3B/CJsaIb8pQ7yqh7+tRzBXDWQS3oBwwFcJC/Ov5IKeei6s2jcwDwoDAwAISepkfg7Tj9Q9BfCdqLfeLdATxAaFOAxI1iyEbOs0vOf88XZilnavrn5wsAAAAASUVORK5CYII=;" vertex="1" parent="1">
          <mxGeometry x="530" y="1380" width="60" height="60" as="geometry" />
        </mxCell>
        <mxCell id="PtzTgGSPzgL4J4l-laeS-17" value="Open Telemetry" style="shape=image;verticalLabelPosition=bottom;labelBackgroundColor=default;verticalAlign=top;aspect=fixed;imageAspect=0;image=data:image/png,iVBORw0KGgoAAAANSUhEUgAAAPoAAAD6CAYAAACI7Fo9AAAbeUlEQVR42u2dC5Ac1XWGVxhAUBUIJDFC070SWFVAcCCOAiFOxRaYFGgfQotDUsHW7qyEVuDYgQQ7wdgOY2E7wU4FbFJl4xirAHanu2dWD1YPnrU4BTiOSYiTooJNAYqgKFcMYNDOY+fVOef2vbM9o13t9DxW07f/v+rWPLQz0zPqr8+55557Tk8PBIVErtPzPjfRc/xC/za9wL9BEBQWyKfnIH7bOee0zHjv2pwTuzxrxS6dcVavqLkYuD3L8ItBUJgAJ2jJih/H9zPJlR/KWbFkJmm8WUiZrrvLdMuTpptNGjM5y3giY8UG1OscAh6/HgSFAXIC3O3xrHPONm5nqN2pXreQMtysZVRolGiU847hunu8fyMLbynIXcAOQSGA3FWQm992DzDERplGQULu+gY/LvK/uft72cI/6wJ2CAoR5Jb5HXefgHc+wI8YZPnzbNnpFrBDUKgg96y4G2DMem688UPADkF6Qg7YISgikAN2CIoI5IAdgiICOWCHoIhADtghKCKQA3YIigjkgB2CIgI5YIegiEAO2CEoIpADdgiKCOSAHYLapUR3Qw7YIahlS85FI3q6HnLADkGtuux8m0nSfvLuhhywQ1BTkMsab7lk7DZRNCLZ9ZADdggK6LILS37YOuv8Wcdws7YoGFEJCeiAHYKCWPNM0viuuzcULjtgh6BAkMvg2wvOBScSJAdLaVPVenMBOwRpFoDLW+YHcrZRzFlV190F7BCkiVSp5RkrdpGYn1uhhhywQ9BRLbpjrOG66xpYdMAOQQvN0d39a04iKA6FfI4O2CFoQdhV1N2K7ZBgFDQBHbBDUP08fXbCuLA4Z9ErgB2CdLXqdmy7e2CVgEMj0AE7BFVhl7vWyIX/fkhy3QE7BDULenW+DtghSFPY5XIbKwfYIQiwA3YIAuyAHYIAO2CHIMAO2CEIsAN2CALsgB2CADtghyDADtghCLBDEGAH7BAE2AE7BC0tpsu8MbeRBbADdkgHJRLHrUtMH5+gW//T117rvI+fl+ADdsAOhVUeyDVwn9x/3fjpdHtizd+tSxwP2AE7FEIXnS023+uLOyv6R9Jf6B9xnu4fSb1O463+4dTBgZHUo/Tcjevi08s92KcBO2CHQjgP7+mPpz5FUGeHxh5xN2yZcgdHd7kDozvdwc273auv3+tupOcZ/vXDqfXzeQCAHbBDXck4AS7n4gTwXUPbHnMH4pNu34hToMclGmUCvyJuvcezCvqBeHorv27t2L0nAHbADoUAcnLLvznkWeuChNo9ymDgK1dfv4/uT44BdsAOhQ7ydGURyNUoe7DvBeyAHQqZJXcDDsAO2CHNIQfsgB2KCOSAHbBDEYEcsAN2KCKQA3bADkUEcsAO2KGIQA7YATsUEcgBO2CHIgI5YAfsUEQgB+yAHYoI5IAdsEMRgRywA3YoIpADdsAORQRywN4C7DnbeFZB7gB2QN7lkAP21iz7Mwpy122tKi8EyAF7Fw6y6Hl3P3+vmAUXHpC7IRuAPdgosGXPWLEB/p7TiZ7jAQMgB+z6wV5095huzjKegFUH5IBdX9gredtg0A/POKtXAAhADtj1hb1cnjR5rn4poADkgF1f2EvuLnLfndjlAAOQA3Z9Ya8UUqabGe9dCzgAOWDXE3aCXNz+4m3nnNMACCAH7HrCLpbX6Dsk5ffC8hogB+yawV5RgbhMcuWHsLwGyAG7jrAnyZofoGSZpHG7+C7TsOaAHLDrBnuBjzNnm9+u/w4QIAfsesDuQW6Z3xHH3tOzDBtaADlg1wv2WsgJcFhzQA7Y9YIdkANywK457IAckGNoDjsg14jyZQJ0QA7YAbnGgiUH7IBcb117rSOymfrjqb8f2vYoIAfsgFw3rVuXENlM/SNO/8at+/kELfIJClAjDTsg11BiXt43kvrJhi0P0wmZLgLQSMMOyLV12UdTHx7cvIdPyhLAjDTsgFxLtz0xLdz2vmHncxvHDmBuHm3YAbnuoJO7fs/GrQT6cApuezRhB+QAHUNz2AE5XHeMpYJd/V+0AntmDvZZWRTi6EUjkoAcwTiMJYJ9nzsQT2/1ljrbAvv33QOrRAlmad3LWVtC7916z9N9r2iE3E8OyLG8htF5y75+OLXegz3ROux2bHsxbbpcy62UFl1UhAXnW37s7u11Zx3DzSVjt4nX0jmQAOSau+9ImDnWozS4eTffvr4uPr1cYttUEQdhlWUBiNkJ40J25QnwQ1x3XYBtG0W6fzCTNL572DrrfHWBQNGIqLnwSIE9VmN2o9hf4NzYyny9Cryvdpu7f81JecdYM2PFLspb5gdecC44cb6/g6IibGo5hiNdZPedpk+P+i+8rYh7li8EMj9PVhyuejSFbarHcq4u3Pfh1EGC/ER/7KTl/9UeL8gmwGc3vQduOoTCE8dmDKcqA6M7+f5b/deNn97KPB2CAHs3W/TRXSIgRxb9ZIAOAXZNI+8btkxxMO5pL1ySwPwZAuy6jb4Rp+D9vukvtCPqDkGAvQvd9oH4JEOe6Ys7K/wrIBAE2PVYVuPEpMLQtsdcymH4FKw5BNj1HNJlT93Fv2071s8hCLB3IeT8W85F2RFphwC7vpCL3xSQQ4Bdb8hdQA4B9oVGhTPK5FbP+lGRgS5ADkEhgb0iCmJwmSuv1FWJIeYlKc4m4xzxDVQ0g8egGLtdkU4aT6v93up1RfkYkENaaxlHdXn5hiuZiEH3W4r0dg72soKTqq+4XBCD98pzuSve5eWtO6cyNH5O45WB4dSLdPs/dAH4Kd3+L92+yVs/+UKwces+73V06+37Tle8904v5b57QA51Xo2UKGoa+PbBXlEW2wPUg5Me52g8T2Du6BtJ/yWB33fVcPrCaz45edaGzff9Sk1hRTqW9Z/Zf9LG+K5fvSqeXD0w7FxCr/mTgXgqQevUu8VFgS4S3gVjn3fBqHoJgBwKuRX3zi/3OIZkYDj9d3TyPUTjQTr5t/cPT14W5ILQAdjZnS4IAMlqX339FKWEpg8R2N8jUP94/ScmjXb9GHxRoOyz36L3/TQd53763BkP+imfF9HWuT0ghzo+iZ6Dj4Chk+5ldnv5xBZusHSFvTpxqf+ik/FjS2rZvUBaQVhv728z4gI0mr6SrXL9dxFTDjHtSBzPFy3fktSyI743Dd4YIqYqR5miXEleAW0kGaNjeYbdellKq11lrwE5tASBMnlSUdWSOxloWZesKOCbC2wVvJ1TD4u5L1n4m32WfVlnYPfSPjlgJktMv0HH+EWGrma6IWMJbc77XsYXifnAF27+sDPOxyeAFxeipgtlAnJoiaPhXANu8XmoiEhL8D7bQdj5GCryc97izxocmzrFD7cEcGmgoOPkz/RvC73qk865PK1hT0O69AXpfQByqEshr0LWwLzTO5lLbM24oUPbYY+n8+w5sCXn5zhg5p87H+sdW2pFQj0ejFsX8/5wvij5gnaAHOpWyIOvWbcbdt608fEbn2S3/d8JnrU1gHdZ6qdy7asufTx9Ax1/3ive6BQAORR2yDsDuwJmdPJPx8aeO6EKeJdDwBZeufR9102u4oCdDBqWBo5MvAHkUKggbz/sdbuywrYVU12cpGfyD3Jt39++CpBDoYS8A7CrjjDhBMC7OFVLYQ+LOENcVG3NA3IozJB3BPaQ/+DLVBZe/7B9GWfsXXPjE9WiEYAcCivkXQs79woTDQlkN5KakaAhmxV04hhVgwXOKKRA3der0xNADoUY8q6AncGeTkiQAzYEdBPVC0Dblu9qO56iMgykB+THDHZ3gf5h7zrGGdwtNO8YV+Us4xN5yxjLJGM3zFjmaMY2N2at2KXZyZhRDzf3G2vmYjGfVIotTkpIJ8gXg739gPuaALoPrTk1Y68czFrGt2j8W8Yy3uY2wO5urwc49/sWg+/v6XXLkyb3A89lk8bPsknTzluxbdxJtOYzGHj0IYMAeQOwxz3Y2+W6iiaABLl6zJY5Zxv3EbT/5+4xPZh3mW4hZTDIFe77TaPoH7IHeDlvG26FgHcf9i4C8m+nqX3wMLcS9gOPEwwC5Auny5a9NWWvu0irbYSeu3dtdb06lzTWZW3jSQEqWelCynR9UJck5O4io0IWvey7CLjiYjEloD+UnYjdrC4qYh7vwrpDgHzeNkIe6M7jrYCuAm3Cgj8UMwjCSbbaDKUP1EbAPvqw5zyAUtrzDuj9X87bvYPqWNRxQBAgr2kjlHp3/ajzG82C7p+HzyRjcQqsZaXFLWU9F9zt0OALSEG59nT/gZe+5bnzrs+zgKAoQy6OhXd19Q2ntvEx1pRzChBwq7rqlvE9trAcYGMAOwh4/RAWvmrdnZXnAnYIkNe0+E39uHq8TULuOhecSKD9wN3XqwAvLyHk/jHL0wWCvcDxAcAORR3yOdCHJ6/g4wy6vKYgf80xTibAnpeu+uwxAtw/ihz0K9KYmTCuAuxQhCFPF8W+7OHUk3ycQRNG/AksBNYPuwjyqivP0wcxhUiu/HD9agAERcGSz2PNE8GsuQy+ZS3Tke56N0EuBq/Dc1Se4gaHCXazPp4AQRGA/OG5uXnAKLtyg7O2+VmGPNeFkPtGgZf3MknjP3wXKayzQ9pDLmqmcVOFgU32VmHNE43PzZVFnBmP/bbIavPWtFtZG6+w5c1ZZkFlwsnhz5QrtxygowtS3jLuhAsPRQNySnuV6+bvXLnFOUN+gWWNf1XPGhLgP+L8dJWp1hTgZG05vZVz2kVKLN3yerhIglG571Nevru8CJRaSLAp8/tmnN61cOEh3SGX1lw0N5gIGmlXueTkBm+ROeeF5qPihspbzxLw+2fs2Oczlnn1e/bKP6Clsd/LO71/xDvZZH78QXExmLuwNONBFEWGnm08VR9MhCC9IJd13zndlVolfTwI6Gp3GMNO0LwidpUlA7vUFQEcWemMZbyTS8ZuyyTNlYt+9nNrT+CLgIrusxfQpHUXsGdso4/fF2mykK6QV+rTXRtNklHWPGebm+VSWqEJyMvea2NJ3ofun/fz+0+rijJ1FWf8x8FWniGvTAafNrD7L/Pun/KvHECQTpCLaLvXqjj42nl1bk57yEXmWTCLKgJ2wvW2zVv8lroRF5q9CVlkQvzt7ETvBVnL/Lm7s6kYAebqkNaQV/PaKVnmy0Gi7QqGAsFRTJtuE1HwEs+x6fbTyjtodo7MqbbCs3BW9tJ8+81SOvBFp+DFBsy7/J4KBOkCedWi03bUfm9+3liSTDUIZ8W+EjQIx5F16erfI96LlrZarQajYOdiFrJwhRsgQFeWbv9LykNAdRpII8i5Z1va6zu2efIc/h6NbketWVIL4LbneC7tudc/rX+vlv87lGW3Y9ubWAGocB58ZhzuO6SXJRf7zrmrKEXbD62L71guv9ii0CkXm6PjBEhGRrwrDa5fF9llp3zzIWXN2/df4l0wXt2xejl91uulAFOKnHLfk8ZfwH2HdILcvyX12UDWXFq7vL3yikBBOFp642AZRbpf6JR7rC4cOdv8IoOba9yqF+V04gGADukEuVg/l4kyqWbm5wTFZ6SLXAwS9MoljQS/vhNpp8rb4CITdVlwiwcHvT3rP2rndAIC5N2REcf9wUdS/xQo4q5At81/DAS6suhJ8w+XYh6csYz/Fp/XmMdRlq7+IZdcf8AOyPWAvBb0O5oC3TLGpbvbCOgVWUrq8MzE2Wd2EiRXFaO0YlbQ48tZ5ruHHzjz/QAdkOsBuQ/0vnj61kCgS0tMFnNKFF9srNBjWTZeOFgt1NihJaw5j8P4RgCPg3fMiV1t7yRXrPZPAyBArgXodPs3zYDOG09E0ksjoJPbXvECcS922lLOpeYaiYZBt6ugF/PjvecAdECuB+RtAD0Liw4B8lCB/iXM0TFHB+Q6Qu4HfST1DUTdZdQ9abyGqDsg1w90sY6e3iFAXxcQdMoia2od3TZu59d3ch39PV5HV+vnja6j78Y6OiDXcnjlnfvj6Uf4Oze6RbXVzDiytB3PjMsgMw4C5Go45Q2b9/D9F5qxmpzrTtY5UK57Tua6E/RD7bbqygpz22TkukOAvK66TN9I6peDfzbx6/LHWBYEqkzAohNLsnvNMr4c0JrP7V5D8QltKY8q5DU72AaGnUsCue/V/ejmV5rYEurtR7eNbyp3u2370amIpIzuB96PTt7GS9W+cdiPrhnk0oJFFPJqPff+kcmxQJF3lR2XNH+3lQozedv8c3XhaLXCDHdeySSNpivMzFjG3XDbNZTalkkpoHdHEnJf5J3c9/uDRN79LnfLNeMs86+q70k14xLN1Ixzen+T1s1bqxlHFy247ZpJndB9cefWoW2P8Yle8CquRAx0CsgNbt7NwL+USLgKsEBVYEVN91aqwD4sgmATvxzvPd3vMTRaBZY+fyvD3UwVWM+zQBVYTS25d0L3b9n5wYHRnSIoRSd6BCH3BeXodxgctX4n0Dxd1XWnOTaBcrANdd3fnpmgpg0Prjprsc/maD1Z4A00z3+29bru/NmxAX5f1HXX0ZqTu8rz074ouuzzVoJ1/pZ/l7Vj9za85FXdQNLeTi0ZipjvoznzrQJmJ/b72XHjkrzdewUFzLaSBadOLbFX29apxTJ+4F82hLQJwPX0DI5NnUIn+BsccebIc8RB9zqpDjv/GWSJbd65ejt6rzmGy+686r1W7nTvNczNNXbbN+08v7YaaqRB95bZaK4+GJ+8NIj77gdkxmlfN1W5I06BXJbv1/ZuqnT7dTUVAB0aSZ3AdEJfLKx5tOfmR7ZNHkn9c5BltirsEpSZCeOvQ9Mf3TKer/dKIM0s+mA8fd6cJYdF97LkRI33w31bJlf5lx8DuPDi78kap6S17EbYS3KX2gx3doHLrvkcfV18ejmd3K9jjl4zZq+54Qm3b5OzyR+0bPiX9QWzCKh/lUtu3QR7ibPmROYctWKGy6571F26pWS97hM100acAiBPFThpiPIK7pbmuSlXtppC6hgnU3T8J10Eu4jqcxZf3jLW+6cbkObu+1WbnXP72V2VwaioQ85pwPWeT0uwe7vI/kW68YU2BNCaD7ztEgUoCjk7dhkgj6BVHxhO3zS07VGv/9hIJANztZDzvNx1Ww5M+ee9vO7NS2V5b7NJYSlddbFW7u1ke3l2YuV5gDzCEfj+eGr7RpHrno4a7B2BXMnxwT5jmaMEXU668qUGC0o2O9hzKHBKrEyvfZC9C0AeXS1Tbjxlx90RMdg7Crl/2UqllWYnYwYBvpPdaJlfXm4hq22+BBhhwUVyjZdh90rGMq/2BQuR3hrlKLyy7BGCfUkgr/mVfZb08ETscoJwWlhcsvAcJMvVJshUGt0Q40ugqWbOEfSv8Y44lZ7LgGOdHIoa7EsOuX/5zT935xz2TDK2gyD9hchb55RXsvYiu+7ITDhveBeEMm9iUa65LAFVpn97ioJtI6/KKq7iM7G3HIog7McM8vpAnX876NvOOaeJzSuWcQ+NH2cs4x1e667mtu+VY2ou953+Lk8Btp+R5XYyVuxGCvStqfkM3s6KKjFQBGHvCsiPAH4ei/ve/bFfm7FiF/F6dy4Z20QgbyPLf0PONjfTBWBI7GajajL1e8eFxzANNx2KLuxdB/l8AbtmIHXV67DFFIo47F0N+ULgO3UVZapDVZxh6w3XHALs4YQcggA7IIcgwA7IISg6sANyCNIcdkAOQZrDDsihCKPJHT3ql2layn3uStgBORRhyBfZrdR8mmRXwQ7IoQhD7ts8kXOMj2Yt43M07swlzS9lbHPjWw+tOdV3QTgupLADciiigJNLrsDNJo0hgvtFsf95r29zBLfgoa6bOTv2+fkuDCGBHZBDgJys9lcF1F53zVLOMrmEUVHdivY/B1YR8LHHqj3EwgM7IIciDLmqK07dN2RBwqO17OGiBXnxd7bXSTMksANyCJDXQV5pqEIoFw8MB+yAHALkTUAeJtgBOQTIW4A8DLADcgiQtwHyboYdkEOAvI2QdyPsgBwC5B2AvPOwU0eYgcXbP1X6ADkEyDsKeQ3svPRWXWdvMYOOO8KI9k8EM4Ps9Xuradlcls9XhrY9Rg0P03cDcigccMrKnNNztb7ExpJEQGiWGPI52Pf1iqQa36E0lRuvOsJwrzfuQ85dXGXLZrbyAnZ+vHHrAXdgdCd3Nb1VvbaVhocQ1HnIpxffVNLFkKuR5ww6lS7bQkOAqmXfwF1cqWUz92dXgEuL/gZZ9Pv7t+z8oGfIyZIDcqhrAe/xpaImzZVZ27yF8s5TOct8PJs07awVu/nwA2e+X819j7aD7BhDLjLoOF2Wc+PfeuiMU9UxNfvbqC6u4n58evlgPH3eYHzy4v5NO88fHJs6pfpv66bRYQTq/rm0BPMmYRE555xb5+zxtdCxjEzGjt0g//64+eDpAsjVKIqNMLTrTU5HWoKQ3Xg/8DUXAgJcufkQ1L2Qy+g0WfKvuY+wy2twX6yCL++8yI9Fy539DE9se9Wy+2DvIsi5t3ZBROFpi2uL7vu8c3d26T244aZDIYKcW+nIPthFuXlkoU0lokk9Bbvu8Lvx3QR51aJ7Xsid7QUdgsIIupyXkwV8hhvkqXa2R219a9fBPu1F57sI8qpF5+IVAB2CGHJn1dkMhq85vdso7BTZvkO9T75LIJejxMUruFKN33OBoOiCPmF8lIs95BbeB75QU/sSz9mpe+ZtuaSR4PtdA7lXvOLFqueCnl9Q5EG3zY80AbqCvcyvlWCVG/QIOjkq1fk5laWS0xO47RCUS65YTXAUcnOgNAxWxhIR+rIYxxbwOcj3iWW1r8Jlh6C6YBwlxDzdYDCuW0cVcg4I+r8bBAF0afFmxs0rOTFGrptXdIC8lWw4CNIWdl4u66KAWvOQu4AcghZx4btqiQyQQ1BbQfc3UQgH7IAcgpqG3Q0F7IAcgjSHHZBDkOawA3II0hx2QA5BmsMOyCFIc9gBOQRpDjsghyDNYQfkEKQ57IAcgrSG3QbkEBQF2Mu8sSYPyCFIW9hFCSguSyU+o66cNARBesAuQY/dJt6fq8ui1hsE6QV7zpY16PbPVZeFVYcgPS27V122vkkEYIcgDWGvbxLBQTm48RCkMey+Xm/4lSFITze+KBs7el1c0VoJgrSEvcxdXLlls+rPnkAZZwjSEPakapgYuxlWHYL0hb0oas4nTVu8L1osQZCWsJfcPdwbznxcvCeCchCkJezSohspfo9pWHQI0hB2NUe3zVswR4cgPWEv52yDb/OZpLlSztERdYegUMG+v9rYsVjTW13uSxdu+yOr+LmbYM0hKGywS6ssGjvS/JtbNud8vdb5Pj/nTnEarPk1WHIICjns3LKZ+7OT1S7wNlWxVZXu0+NnMpaxvvr3yHWHoJAC71sqyyVXrM7Z5kdyE8ZHc86qs+f7GwiCQgz7fG45PwfIIah1/T93JlhvXQtrgAAAAABJRU5ErkJggg==;" vertex="1" parent="1">
          <mxGeometry x="630" y="1380" width="60" height="60" as="geometry" />
        </mxCell>
        <mxCell id="PtzTgGSPzgL4J4l-laeS-18" value="&lt;font style=&quot;font-size: 14px;&quot;&gt;AWS Management Services&lt;/font&gt;" style="rounded=0;html=1;fillColor=none;labelPosition=center;verticalLabelPosition=top;align=center;verticalAlign=bottom;spacingLeft=0;spacingTop=20;whiteSpace=wrap;spacingBottom=-30;spacingRight=0;dashed=1;" vertex="1" parent="1">
          <mxGeometry x="740" y="1341" width="112" height="149" as="geometry" />
        </mxCell>
        <mxCell id="PtzTgGSPzgL4J4l-laeS-19" value="AWS Code Deploy" style="outlineConnect=0;dashed=0;verticalLabelPosition=bottom;verticalAlign=top;align=center;html=1;shape=mxgraph.aws3.codedeploy;fillColor=#759C3E;gradientColor=none;aspect=fixed;" vertex="1" parent="1">
          <mxGeometry x="762" y="1381" width="60" height="72" as="geometry" />
        </mxCell>
        <mxCell id="PtzTgGSPzgL4J4l-laeS-20" value="&lt;font style=&quot;font-size: 14px;&quot;&gt;AWS Integration Services&lt;/font&gt;" style="rounded=0;html=1;fillColor=none;labelPosition=center;verticalLabelPosition=top;align=center;verticalAlign=bottom;spacingLeft=0;spacingTop=20;whiteSpace=wrap;spacingBottom=-40;spacingRight=0;dashed=1;" vertex="1" parent="1">
          <mxGeometry x="870" y="1341" width="112" height="149" as="geometry" />
        </mxCell>
        <mxCell id="PtzTgGSPzgL4J4l-laeS-21" value="AWS MSK" style="sketch=0;points=[[0,0,0],[0.25,0,0],[0.5,0,0],[0.75,0,0],[1,0,0],[0,1,0],[0.25,1,0],[0.5,1,0],[0.75,1,0],[1,1,0],[0,0.25,0],[0,0.5,0],[0,0.75,0],[1,0.25,0],[1,0.5,0],[1,0.75,0]];outlineConnect=0;fontColor=#232F3E;fillColor=#8C4FFF;strokeColor=#ffffff;dashed=0;verticalLabelPosition=bottom;verticalAlign=top;align=center;html=1;fontSize=12;fontStyle=0;aspect=fixed;shape=mxgraph.aws4.resourceIcon;resIcon=mxgraph.aws4.managed_streaming_for_kafka;" vertex="1" parent="1">
          <mxGeometry x="890" y="1390" width="60" height="60" as="geometry" />
        </mxCell>
      </root>
    </mxGraphModel>
  </diagram>
</mxfile>
